<svg width="40" height="40" viewBox="0 0 40 40" fill="none" xmlns="http://www.w3.org/2000/svg">
<g clip-path="url(#clip0_1_2153)">
<path d="M20.0004 0.799927C9.39642 0.799927 0.800415 9.39597 0.800415 20C0.800415 30.6041 9.39642 39.2001 20.0004 39.2001C30.6044 39.2001 39.2004 30.6041 39.2004 20C39.2004 9.39597 30.6044 0.799927 20.0004 0.799927ZM15.3004 27.9581H11.4124V15.446H15.3004V27.9581ZM13.3324 13.91C12.1044 13.91 11.3104 13.04 11.3104 11.964C11.3104 10.866 12.1284 10.022 13.3824 10.022C14.6364 10.022 15.4044 10.866 15.4284 11.964C15.4284 13.04 14.6364 13.91 13.3324 13.91ZM29.5004 27.9581H25.6124V21.024C25.6124 19.41 25.0484 18.314 23.6424 18.314C22.5684 18.314 21.9304 19.056 21.6484 19.77C21.5444 20.024 21.5184 20.384 21.5184 20.742V27.9561H17.6284V19.436C17.6284 17.874 17.5784 16.568 17.5264 15.444H20.9044L21.0824 17.182H21.1604C21.6724 16.366 22.9264 15.162 25.0244 15.162C27.5824 15.162 29.5004 16.876 29.5004 20.56V27.9581Z" fill="black"/>
</g>
<defs>
<clipPath id="clip0_1_2153">
<rect width="40" height="40" fill="white"/>
</clipPath>
</defs>
</svg>
