<svg width="37" height="37" viewBox="0 0 37 37" fill="none" xmlns="http://www.w3.org/2000/svg">
<g clip-path="url(#clip0_1_2155)">
<path d="M17.8618 8.11806C20.6865 8.11806 23.3482 9.37028 25.2988 11.3278V11.3336C25.2988 10.3936 25.9312 9.68247 26.8054 9.68247H27.0274C28.4068 9.68247 28.6831 10.9833 28.6831 11.3937L28.6889 26.0029C28.5929 26.9603 29.6775 27.4552 30.2799 26.8401C32.6213 24.4316 35.4275 14.4462 28.8219 8.66497C22.6614 3.26875 14.393 4.16022 9.99696 7.1896C5.32455 10.4178 2.33796 17.5484 5.23899 24.2501C8.40712 31.5564 17.464 33.7359 22.8545 31.5622C25.5832 30.4603 26.8412 34.1441 24.0049 35.3501C19.7303 37.1735 7.81743 36.9873 2.25355 27.3523C-1.50541 20.8438 -1.30654 9.39456 8.66727 3.463C16.2904 -1.07759 26.3486 0.180408 32.412 6.51088C38.7483 13.135 38.3817 25.5289 32.1958 30.347C29.3942 32.5381 25.234 30.4071 25.2641 27.2147L25.2329 26.1741C23.2823 28.1062 20.6865 29.2393 17.8618 29.2393C12.2736 29.2393 7.35377 24.3183 7.35377 18.7359C7.35377 13.0934 12.2736 8.12038 17.8618 8.12038V8.11806ZM24.8906 18.3324C24.679 14.2427 21.6439 11.7799 17.9762 11.7799H17.8375C13.6102 11.7799 11.2619 15.1099 11.2619 18.8851C11.2619 23.1181 14.0982 25.7913 17.8201 25.7913C21.9746 25.7913 24.7021 22.7516 24.901 19.1556L24.8906 18.3324Z" fill="black"/>
</g>
<defs>
<clipPath id="clip0_1_2155">
<rect width="37" height="37" fill="white"/>
</clipPath>
</defs>
</svg>
