<svg xmlns="http://www.w3.org/2000/svg" width="285" height="76" viewBox="0 0 285 76" fill="none"><path d="M10.2825 22.2781C9.10018 22.2781 7.91121 22.0719 6.76188 21.6462C4.18578 20.7017 2.12491 18.7994 0.968969 16.2985C-0.193575 13.7975 -0.312472 10.9839 0.62549 8.38985C2.56086 3.03541 8.46606 0.261743 13.79 2.21063C16.3661 3.15514 18.427 5.05746 19.5829 7.55841C20.7454 10.0594 20.8643 12.8729 19.9264 15.467C18.9884 18.0611 17.0993 20.1364 14.6157 21.3004C13.2351 21.9456 11.7621 22.2715 10.2825 22.2715V22.2781ZM10.2825 3.654C6.92701 3.654 3.76964 5.74256 2.55426 9.10155C1.80125 11.1768 1.90033 13.425 2.83168 15.4271C3.75643 17.4292 5.40778 18.9524 7.46865 19.704C9.52953 20.4623 11.7621 20.3625 13.7504 19.4246C15.7386 18.4934 17.2512 16.8306 17.9976 14.7553C18.7506 12.68 18.6515 10.4318 17.7202 8.42976C16.7954 6.42766 15.1441 4.90447 13.0832 4.15286C12.1585 3.81363 11.2139 3.654 10.2825 3.654Z" fill="white"></path><path d="M86.1518 21.2339C91.2554 21.2339 95.3927 17.0677 95.3927 11.9285C95.3927 6.78922 91.2554 2.62305 86.1518 2.62305C81.0482 2.62305 76.9109 6.78922 76.9109 11.9285C76.9109 17.0677 81.0482 21.2339 86.1518 21.2339Z" fill="white"></path><path d="M86.1585 22.2715C81.9641 22.2715 78.0141 19.6641 76.4949 15.467C75.5569 12.8729 75.6758 10.066 76.8384 7.55841C78.0009 5.05746 80.0552 3.15514 82.6313 2.21063C87.9552 0.261744 93.8604 3.03541 95.7958 8.38985C96.7337 10.9839 96.6148 13.7908 95.4523 16.2985C94.2897 18.7994 92.2355 20.7017 89.6594 21.6462C88.5034 22.0719 87.3211 22.2715 86.1585 22.2715ZM86.1387 3.654C85.2074 3.654 84.2628 3.81363 83.338 4.15286C79.0776 5.71595 76.878 10.4718 78.4302 14.7553C79.9825 19.0455 84.7053 21.2604 88.9592 19.6974C91.0201 18.9391 92.6648 17.4225 93.5962 15.4205C94.5209 13.4184 94.62 11.1702 93.8736 9.0949C92.6582 5.73591 89.5008 3.64734 86.1453 3.64734L86.1387 3.654Z" fill="white"></path><path fill-rule="evenodd" clip-rule="evenodd" d="M80.1806 28.4506C82.7171 29.3819 84.7582 31.2443 85.9273 33.6987L85.9405 33.6854C87.1097 36.1397 87.2748 38.9001 86.4095 41.4742L86.3831 41.5474L86.3236 41.707L76.8449 67.9405C75.3257 72.1375 71.3757 74.7449 67.1813 74.7449C66.0187 74.7449 64.8364 74.5454 63.6804 74.1197C61.1109 73.1752 59.0567 71.2728 57.8941 68.7652C57.4516 67.8141 57.1609 66.823 57.0222 65.812C56.6391 65.1934 56.3154 64.5415 56.071 63.8631L48.2239 42.1593L38.9037 67.9405C37.9657 70.5279 36.0766 72.5965 33.5864 73.7671C32.1926 74.419 30.713 74.7449 29.2334 74.7449C28.0511 74.7449 26.8687 74.5387 25.7326 74.1197C24.5436 73.6873 23.4669 73.0421 22.5356 72.2306L22.5752 72.4102L22.4035 72.1109C21.3862 71.193 20.5474 70.0623 19.9529 68.7719C19.6424 68.1001 19.4112 67.415 19.2461 66.7166C18.9687 66.2177 18.7243 65.6989 18.5327 65.1668L10.058 41.727C9.12008 39.1396 9.24558 36.3326 10.4081 33.825C11.5707 31.3108 13.6249 29.4151 16.1944 28.4706C21.3863 26.5683 27.1329 29.1624 29.207 34.2707L38.5602 8.3898C39.4982 5.80238 41.3873 3.73377 43.8775 2.56311C46.3678 1.39245 49.1552 1.26607 51.7247 2.21058C54.2942 3.15509 56.3485 5.05741 57.511 7.56502C57.8083 8.20356 58.0394 8.86206 58.198 9.5272L58.6537 10.5781L67.1879 34.1909C68.7666 30.3663 72.5184 27.8254 76.6666 27.8254C77.8688 27.8254 79.0445 28.0383 80.1806 28.4506ZM12.2642 34.703C11.3329 36.7118 11.2338 38.9533 11.9802 41.0219H11.9736L19.3782 61.5085C19.3807 61.501 19.3841 61.4944 19.3874 61.4881C19.3929 61.4776 19.398 61.4677 19.398 61.4553C19.4509 61.2624 19.5169 61.0695 19.583 60.8832V60.8766L28.1105 37.2838L27.417 35.3615C26.2016 32.0092 23.0442 29.9206 19.6887 29.9206C18.7573 29.9206 17.8127 30.0803 16.888 30.4195C14.8403 31.1711 13.1956 32.6943 12.2642 34.703ZM57.8611 15.467L49.3005 39.1462H49.2939L57.3393 61.4087C57.3459 61.3954 57.3459 61.3887 57.3459 61.3821C57.3878 61.2448 57.434 61.1116 57.481 60.976C57.4931 60.9408 57.5054 60.9055 57.5176 60.8699L66.0782 37.1907L58.0328 14.9282V14.9482C57.98 15.121 57.9205 15.2941 57.8611 15.467Z" fill="white"></path><path d="M132.165 76.0001C120.368 76.0001 111.039 72.5425 104.451 65.723C97.869 58.9104 94.5305 49.5713 94.5305 37.9659C94.5305 32.5158 95.3464 27.3875 96.9647 22.7111C98.5898 18.0142 100.99 13.9266 104.111 10.558C107.239 7.18249 111.135 4.56015 115.704 2.75943C120.246 0.972398 125.339 0.0617676 130.853 0.0617676C138.04 0.0617676 144.309 1.616 149.483 4.69024C154.657 7.76447 158.594 11.7973 161.178 16.6859C163.755 21.554 165.061 26.5865 165.061 31.6531C165.061 36.7198 163.565 39.8967 160.614 41.4373C157.887 42.8546 154.046 43.5803 149.198 43.5803H115.017C115.18 47.0996 115.962 50.256 117.349 52.981C118.859 55.9389 120.878 58.1915 123.36 59.6773C125.848 61.1699 128.636 61.923 131.648 61.923C133.702 61.923 135.592 61.6765 137.271 61.1973C138.944 60.718 140.596 59.958 142.174 58.931C143.792 57.8765 145.308 56.74 146.675 55.5349C148.048 54.323 149.884 52.6319 152.121 50.5093C153.264 49.5165 154.821 49.0373 156.779 49.0373C158.873 49.0373 160.607 49.6398 161.94 50.8243C163.306 52.043 164 53.7547 164 55.9115C164 57.7259 163.306 59.8347 161.946 62.1764C160.607 64.4701 158.581 66.6953 155.922 68.7767C153.27 70.8513 149.911 72.5973 145.927 73.9529C141.943 75.3086 137.319 76.0001 132.172 76.0001H132.165ZM130.846 2.12267C125.59 2.12267 120.742 2.97852 116.438 4.67654C112.161 6.36087 108.51 8.81204 105.6 11.9616C102.676 15.118 100.419 18.9659 98.8889 23.389C97.3523 27.8394 96.5703 32.7486 96.5703 37.9659C96.5703 49.0167 99.7117 57.8765 105.913 64.292C112.107 70.7007 120.939 73.9461 132.165 73.9461C137.088 73.9461 141.494 73.2956 145.261 72.0084C149.028 70.7212 152.189 69.0917 154.657 67.154C157.112 65.2301 158.968 63.2034 160.179 61.1356C161.355 59.1158 161.953 57.3562 161.953 55.9115C161.953 54.3436 161.504 53.1865 160.58 52.3648C159.621 51.509 158.37 51.0913 156.772 51.0913C155.317 51.0913 154.209 51.4131 153.474 52.043C151.217 54.1792 149.422 55.843 148.008 57.0823C146.566 58.349 144.975 59.554 143.269 60.6632C141.521 61.7998 139.685 62.6488 137.815 63.1828C135.952 63.7169 133.872 63.9839 131.635 63.9839C128.255 63.9839 125.114 63.1281 122.306 61.4506C119.491 59.7594 117.206 57.2329 115.52 53.9259C113.848 50.6531 112.977 46.8326 112.936 42.5738C112.936 42.3 113.038 42.0329 113.229 41.8412C113.419 41.6427 113.684 41.5331 113.956 41.5331H149.184C153.706 41.5331 157.228 40.8895 159.669 39.6228C161.885 38.4657 163.007 35.7886 163.007 31.6668C163.007 26.9425 161.783 22.2319 159.369 17.665C156.962 13.1187 153.284 9.35294 148.436 6.47726C143.581 3.59474 137.666 2.13636 130.846 2.13636V2.12267Z" fill="white"></path><path d="M204.586 75.9999C193.2 75.9999 184.197 72.6259 177.838 65.9716C171.486 59.3239 168.264 50.2176 168.264 38.8864C168.264 33.5683 169.052 28.5641 170.614 24.001C172.182 19.4177 174.498 15.4224 177.51 12.142C180.522 8.84824 184.289 6.28938 188.692 4.53225C193.076 2.78849 197.991 1.8999 203.313 1.8999C210.249 1.8999 216.299 3.41651 221.293 6.41632C226.286 9.41613 230.086 13.3513 232.579 18.1216C235.066 22.8719 236.326 27.7825 236.326 32.7265C236.326 37.6705 234.883 40.7705 232.035 42.2737C229.403 43.6634 225.696 44.3649 221.017 44.3649H188.029C188.187 47.799 188.942 50.879 190.28 53.5381C191.737 56.4243 193.693 58.6224 196.081 60.0722C198.483 61.5287 201.173 62.2636 204.08 62.2636C206.062 62.2636 207.886 62.0231 209.507 61.5554C211.121 61.0877 212.716 60.3461 214.238 59.3439C215.8 58.315 217.264 57.1993 218.583 56.0301C219.921 54.8342 221.693 53.1906 223.839 51.1262C224.941 50.1574 226.444 49.6898 228.334 49.6898C230.355 49.6898 232.028 50.2777 233.314 51.4335C234.633 52.6228 235.303 54.293 235.303 56.3976C235.303 58.1948 234.653 60.1924 233.321 62.5108C232.035 64.7489 230.073 66.9203 227.507 68.9513C224.948 70.9757 221.706 72.6794 217.861 74.0023C214.022 75.3251 209.553 75.9999 204.586 75.9999ZM203.313 3.91091C198.24 3.91091 193.561 4.74605 189.407 6.40296C185.28 8.04651 181.756 10.4383 178.947 13.5116C176.126 16.5916 173.947 20.3464 172.471 24.6624C170.988 29.0118 170.233 33.7954 170.233 38.8864C170.233 49.6697 173.265 58.315 179.249 64.5752C185.227 70.8287 193.752 73.9956 204.586 73.9956C209.337 73.9956 213.589 73.3609 217.224 72.1048C220.86 70.8488 223.911 69.2587 226.293 67.3679C228.668 65.4905 230.46 63.5129 231.621 61.4953C232.757 59.5176 233.334 57.8073 233.334 56.3976C233.334 54.8676 232.901 53.7385 232.009 52.9368C231.083 52.1016 229.876 51.7008 228.334 51.7008C226.93 51.7008 225.86 52.0148 225.151 52.6228C223.018 54.6672 221.234 56.3374 219.875 57.5467C218.484 58.7827 216.949 59.9586 215.301 61.0409C213.615 62.15 211.843 62.9785 210.039 63.4996C208.241 64.0207 206.233 64.2813 204.074 64.2813C200.812 64.2813 197.781 63.4461 195.071 61.8093C192.354 60.1657 190.149 57.6937 188.522 54.4667C186.907 51.2732 186.067 47.5451 186.028 43.3895C186.028 43.1222 186.126 42.8617 186.31 42.6746C186.494 42.4809 186.75 42.374 187.012 42.374H221.01C225.374 42.374 228.773 41.7459 231.129 40.5099C233.268 39.3808 234.351 36.7685 234.351 32.7465C234.351 28.1366 233.17 23.54 230.841 19.0837C228.518 14.6474 224.967 10.9728 220.289 8.16009C215.603 5.34735 209.894 3.92427 203.313 3.92427V3.91091Z" fill="white"></path><path d="M250.232 19.7942C247.485 19.7942 245.098 18.9247 243.133 17.2198C241.128 15.4739 240.108 12.9953 240.108 9.86631C240.108 7.00432 241.141 4.61478 243.181 2.75928C245.194 0.931171 247.56 0 250.232 0C252.904 0 255.1 0.842162 257.086 2.49225C259.126 4.19712 260.159 6.67568 260.159 9.85946C260.159 13.0432 259.153 15.4054 257.174 17.1719C255.23 18.911 252.897 19.7874 250.232 19.7874V19.7942ZM250.232 2.05405C248.056 2.05405 246.193 2.77982 244.548 4.27928C242.929 5.75135 242.147 7.57261 242.147 9.85946C242.147 12.4065 242.909 14.3031 244.466 15.6587C246.071 17.0555 247.954 17.7333 250.232 17.7333C252.51 17.7333 254.244 17.0486 255.821 15.6314C257.365 14.2483 258.119 12.3654 258.119 9.85261C258.119 7.33982 257.358 5.38162 255.78 4.06703C254.148 2.7045 252.333 2.04721 250.232 2.04721V2.05405Z" fill="white"></path><path d="M250.035 75.1922C247.097 75.1922 244.677 74.1104 242.834 71.981C241.026 69.8927 240.108 66.9143 240.108 63.1349V38.4588C240.108 34.6246 241.032 31.6668 242.848 29.6606C244.69 27.634 247.111 26.6001 250.035 26.6001C252.959 26.6001 255.399 27.6271 257.303 29.6401C259.2 31.6462 260.159 34.4329 260.159 37.9248V63.128C260.159 67.0102 259.2 70.016 257.31 72.0632C255.399 74.1309 252.952 75.1785 250.035 75.1785V75.1922ZM250.035 28.661C247.675 28.661 245.812 29.4415 244.357 31.0505C242.895 32.6664 242.147 35.1587 242.147 38.4657V63.1417C242.147 66.4145 242.895 68.9342 244.371 70.639C245.833 72.3233 247.682 73.145 250.035 73.145C252.387 73.145 254.291 72.337 255.821 70.6801C257.351 69.0232 258.119 66.4898 258.119 63.1417V37.9385C258.119 34.9943 257.351 32.6801 255.828 31.0711C254.298 29.4552 252.408 28.6678 250.035 28.6678V28.661Z" fill="white"></path><path d="M274.817 19.7942C272.07 19.7942 269.683 18.9247 267.718 17.2198C265.713 15.4739 264.693 13.0022 264.693 9.86631C264.693 7.00432 265.726 4.61478 267.766 2.75928C269.779 0.931171 272.145 0 274.817 0C277.489 0 279.685 0.842162 281.671 2.49225C283.711 4.19712 284.744 6.67568 284.744 9.85946C284.744 13.0432 283.738 15.4054 281.759 17.1719C279.814 18.911 277.482 19.7874 274.817 19.7874V19.7942ZM274.817 2.05405C272.641 2.05405 270.778 2.77982 269.133 4.27928C267.514 5.75135 266.732 7.57946 266.732 9.85946C266.732 12.4065 267.494 14.3031 269.051 15.6587C270.656 17.0555 272.539 17.7333 274.817 17.7333C277.095 17.7333 278.829 17.0486 280.406 15.6314C281.949 14.2483 282.704 12.3586 282.704 9.85261C282.704 7.34667 281.943 5.38162 280.365 4.06703C278.733 2.7045 276.918 2.04721 274.817 2.04721V2.05405Z" fill="white"></path><path d="M274.613 75.9314C271.682 75.9314 269.255 74.8496 267.412 72.7203C265.603 70.632 264.686 67.6536 264.686 63.8741V39.1981C264.686 35.3639 265.61 32.406 267.426 30.3999C269.268 28.3732 271.689 27.3394 274.613 27.3394C277.536 27.3394 279.977 28.3664 281.881 30.3794C283.778 32.3855 284.737 35.1721 284.737 38.664V63.8673C284.737 67.7494 283.778 70.7552 281.895 72.8024C279.984 74.8702 277.536 75.9177 274.613 75.9177V75.9314ZM274.613 29.4003C272.253 29.4003 270.39 30.1808 268.935 31.7898C267.473 33.4057 266.725 35.8979 266.725 39.2049V63.881C266.725 67.1538 267.473 69.6734 268.949 71.3783C270.411 73.0626 272.26 73.8842 274.613 73.8842C276.965 73.8842 278.869 73.0763 280.399 71.4194C281.922 69.7624 282.697 67.2291 282.697 63.881V38.6777C282.697 35.7336 281.929 33.4262 280.406 31.8103C278.876 30.1945 276.979 29.4071 274.613 29.4071V29.4003Z" fill="white"></path></svg>